<svg xmlns="http://www.w3.org/2000/svg" viewBox="0 0 128 128"><rect width="128" height="128" rx="24" fill="#2d2e33"/><g fill="#FF7A40" transform="translate(64 64) scale(0.88) translate(-64 -64)"><path d="M38.4,36.21l12.27,1.91s.01,0,.02,0c.66-.03.72-1.14.09-1.43-.74-.33-1.9-1.19-2.42-3.42s.16-3.52.67-4.13c.45-.54-.09-1.5-.7-1.25,0,0,0,0-.01,0l-10.14,7.25c-.58.23-.39,1.09.23,1.06Z"/><circle cx="53.57" cy="32.06" r="4.5"/><path d="M74.1,95.96l-5.2-11.56s0,0,0,0c-.18-.36-.81-.13-.81.29,0,.49-.21,1.34-1.32,2.15s-1.98.75-2.45.61c-.4-.12-.81.41-.52.69,0,0,0,0,0,0l9.47,8.43c.42.41,1.1-.08.83-.61Z"/><circle cx="64.86" cy="84.23" r="2.72" transform="translate(-24.66 141.58) rotate(-85.05)"/><path d="M22.62,65.15l13.08-21.34s0-.01,0-.02c.38-.66-.65-1.41-1.32-.97-.78.5-2.33,1.09-4.8.19s-3.29-2.34-3.56-3.23c-.24-.77-1.51-.85-1.64-.1,0,0,0,.01,0,.02l-3.67,24.76c-.21,1.14,1.33,1.7,1.9.69Z"/><circle cx="31.69" cy="37.23" r="5.17"/><path d="M38.31,93.62l-12.25-22.9s0,0,0-.01c-.25-.51-1.15-.19-1.16.41-.01.69-.31,1.91-1.9,3.06-1.6,1.16-2.84,1.05-3.5.85-.57-.18-1.16.58-.75.97,0,0,0,0,.01,0l17.93,18.79c.82.81,2.15-.15,1.64-1.19Z"/><circle cx="20.29" cy="70.45" r="3.87"/><path d="M53.05,78.19l-13.62,15.44s0,0,0,0c-.31.33.19.91.65.75.52-.19,1.51-.33,2.84.53s1.62,1.81,1.66,2.37c.04.48.77.7.95.28,0,0,0,0,0-.01l8.93-18.55c.32-.86-.81-1.51-1.39-.8Z"/><circle cx="40.91" cy="98.01" r="3.11"/><circle cx="56.4" cy="74.72" r="2.91"/><path d="M92.4,89.94l-15.21,5.1s0,0-.01,0c-.47.18-.26,1,.27,1.06.61.07,1.66.43,2.55,1.93s.7,2.59.46,3.16c-.2.49.42,1.07.8.74,0,0,0,0,0,0l11.8-10.87c.57-.48.03-1.39-.66-1.12Z"/><circle cx="76.47" cy="100.12" r="3.44" transform="translate(-42.83 140.6) rotate(-71.37)"/><path d="M92.4,89.94l-15.21,5.1s0,0-.01,0c-.47.18-.26,1,.27,1.06.61.07,1.66.43,2.55,1.93s.7,2.59.46,3.16c-.2.49.42,1.07.8.74,0,0,0,0,0,0l11.8-10.87c.57-.48.03-1.39-.66-1.12Z"/><circle cx="76.47" cy="100.12" r="3.44" transform="translate(-42.83 140.6) rotate(-71.37)"/><path d="M81.83,43.77l10.41,42.19s0,.01,0,.02c.11.65,1.22.58,1.43-.09.24-.77.95-2.04,3.11-2.82,2.16-.78,3.52-.28,4.19.16.59.38,1.48-.28,1.15-.85,0,0,0,0,0-.01l-19.01-39.06c-.38-.68-1.42-.3-1.27.46Z"/><circle cx="98.62" cy="88.1" r="4.51" transform="translate(-19.2 148.17) rotate(-68.79)"/><path d="M103.51,29.22l-20.99,5.04s0,0-.01,0c-.49.1-.41.95.1,1.09.59.16,1.57.67,2.23,2.29s.3,2.67-.02,3.2c-.28.46.25,1.12.68.86,0,0,0,0,.01,0l18.64-10.89c.83-.5.32-1.78-.63-1.57Z"/><circle cx="81.04" cy="39.16" r="3.44" transform="translate(17.28 102.68) rotate(-70.68)"/><path d="M58.57,49.1l20.99-5.04s0,0,.01,0c.49-.1.41-.95-.1-1.09-.59-.16-1.57-.67-2.23-2.29s-.3-2.67.02-3.2c.28-.46-.25-1.12-.68-.86,0,0,0,0-.01,0l-18.64,10.89c-.83.5-.32,1.78.63,1.57Z"/><circle cx="53.56" cy="50.32" r="3.44" transform="translate(-11.65 84.22) rotate(-70.68)"/><circle cx="108.15" cy="27.88" r="3.44" transform="translate(46.06 120.71) rotate(-70.68)"/></g></svg>